<svg xmlns="http://www.w3.org/2000/svg" viewBox="0 0 48 48"><linearGradient id="inTs3xcNADYhBSHvRRds1a" x1="5.694" x2="29.192" y1="-.186" y2="47.056" gradientUnits="userSpaceOnUse"><stop offset="0" stop-color="#f52537"/><stop offset=".293" stop-color="#f32536"/><stop offset=".465" stop-color="#ea2434"/><stop offset=".605" stop-color="#dc2231"/><stop offset=".729" stop-color="#c8202c"/><stop offset=".841" stop-color="#ae1e25"/><stop offset=".944" stop-color="#8f1a1d"/><stop offset="1" stop-color="#7a1818"/></linearGradient><path fill="url(#inTs3xcNADYhBSHvRRds1a)" d="M8.181,35.694L23.577,6.713c0.381-0.718,1.414-0.705,1.778,0.022l14.488,28.976	c0.385,0.77,0.234,1.7-0.375,2.309l-3.314,3.314c-0.374,0.374-0.976,0.392-1.371,0.04l-8.329-5.626	C25.765,35.137,26.197,34,27.117,34h4.37l-7-15l-8,15h4.37c0.92,0,1.352,1.137,0.664,1.747l-8.329,5.626	c-0.396,0.352-0.997,0.334-1.371-0.04l-3.287-3.287C7.911,37.424,7.768,36.47,8.181,35.694z"/></svg>