<?xml version="1.0" encoding="UTF-8" standalone="no" ?>
<!DOCTYPE svg PUBLIC "-//W3C//DTD SVG 1.1//EN" "http://www.w3.org/Graphics/SVG/1.1/DTD/svg11.dtd">
<svg xmlns="http://www.w3.org/2000/svg" xmlns:xlink="http://www.w3.org/1999/xlink" version="1.1" width="640" height="640" viewBox="0 0 640 640" xml:space="preserve">
<desc>Created with Fabric.js 5.3.0</desc>
<defs>
</defs>
<g transform="matrix(2.0341157177 0 0 2.0341157177 320 320)" id="uYDuAvc6hwf8ipqHZw6Uc"  >
<g style=""   >
		<g transform="matrix(1 0 0 1 0 0)" id="HEbWCy6Ywuo4elhXyKBv1"  >
<path style="stroke: rgb(11,120,239); stroke-width: 0; stroke-dasharray: none; stroke-linecap: butt; stroke-dashoffset: 0; stroke-linejoin: miter; stroke-miterlimit: 4; fill: rgb(157,101,188); fill-rule: nonzero; opacity: 1;"  transform=" translate(-157.07071, -157.07071)" d="M 157.07071 0 C 243.77373999999998 0 314.14142 70.36768 314.14142 157.07071 C 314.14142 243.77373999999998 243.77373999999998 314.14142 157.07071 314.14142 C 70.36768 314.14142 0 243.77373999999998 0 157.07071 C 0 70.36768 70.36768 0 157.07071 0 z" stroke-linecap="round" />
</g>
		<g transform="matrix(1.0109197676 0 0 1.0109197676 0 0)" id="Sum-_VZWTOiiEvPQhlj5S"  >
<path style="stroke: rgb(164,232,130); stroke-width: 0; stroke-dasharray: none; stroke-linecap: butt; stroke-dashoffset: 0; stroke-linejoin: miter; stroke-miterlimit: 4; fill: rgb(250,189,134); fill-rule: nonzero; opacity: 1;"  transform=" translate(0, 0)" d="M 0.00086 -112.51141 L 23.6611 -36.42693 L 118.3015 -26.56092 L 47.32063000000001 30.32796 L 70.98087000000001 112.51141 L 1.4210854715202004e-14 71.58514 L -70.98086999999998 112.51141 L -47.32062999999998 30.327960000000004 L -118.30149999999998 -26.560919999999996 L -23.661099999999976 -36.42693 z" stroke-linecap="round" />
</g>
</g>
</g>
</svg>